<?xml version="1.0" encoding="UTF-8" standalone="no"?>
<svg
   xmlns:dc="http://purl.org/dc/elements/1.1/"
   xmlns:cc="http://creativecommons.org/ns#"
   xmlns:rdf="http://www.w3.org/1999/02/22-rdf-syntax-ns#"
   xmlns:svg="http://www.w3.org/2000/svg"
   xmlns="http://www.w3.org/2000/svg"
   xmlns:xlink="http://www.w3.org/1999/xlink"
   xmlns:sodipodi="http://sodipodi.sourceforge.net/DTD/sodipodi-0.dtd"
   xmlns:inkscape="http://www.inkscape.org/namespaces/inkscape"
   version="1.1"
   preserveAspectRatio="xMidYMid meet"
   viewBox="0 0 153.67999 157.89"
   width="153.67999"
   height="157.89"
   id="svg23"
   sodipodi:docname="untitled(2).svg"
   inkscape:version="0.92.4 (5da689c313, 2019-01-14)">
  <metadata
     id="metadata27">
    <rdf:RDF>
      <cc:Work
         rdf:about="">
        <dc:format>image/svg+xml</dc:format>
        <dc:type
           rdf:resource="http://purl.org/dc/dcmitype/StillImage" />
        <dc:title></dc:title>
      </cc:Work>
    </rdf:RDF>
  </metadata>
  <sodipodi:namedview
     pagecolor="#ffffff"
     bordercolor="#666666"
     borderopacity="1"
     objecttolerance="10"
     gridtolerance="10"
     guidetolerance="10"
     inkscape:pageopacity="0"
     inkscape:pageshadow="2"
     inkscape:window-width="1366"
     inkscape:window-height="705"
     id="namedview25"
     showgrid="false"
     fit-margin-top="0"
     fit-margin-left="0"
     fit-margin-right="0"
     fit-margin-bottom="0"
     inkscape:zoom="0.36875"
     inkscape:cx="320"
     inkscape:cy="-162.11"
     inkscape:window-x="-8"
     inkscape:window-y="-8"
     inkscape:window-maximized="1"
     inkscape:current-layer="svg23" />
  <defs
     id="defs5">
    <path
       d="m 153.68,78.95 c 0,43.57 -34.43,78.94 -76.84,78.94 C 34.43,157.89 0,122.52 0,78.95 0,35.38 34.43,0 76.84,0 c 42.41,0 76.84,35.38 76.84,78.95 z"
       id="dTfYbvcJk"
       inkscape:connector-curvature="0" />
    <path
       d="m 132.11,78.95 c 0,31.66 -24.77,57.37 -55.27,57.37 -30.5,0 -55.26,-25.71 -55.26,-57.37 0,-31.67 24.76,-57.37 55.26,-57.37 30.5,0 55.27,25.7 55.27,57.37 z"
       id="c2QVAXEHWB"
       inkscape:connector-curvature="0" />
    <path
       d="m 107.37,81.58 c 0,17.14 -13.68,31.05 -30.53,31.05 -16.85,0 -30.52,-13.91 -30.52,-31.05 0,-17.14 13.67,-31.05 30.52,-31.05 16.85,0 30.53,13.91 30.53,31.05 z"
       id="b40QRCT3tz"
       inkscape:connector-curvature="0" />
  </defs>
  <g
     id="g21">
    <g
       id="g19">
      <g
         id="g9">
        <use
           xlink:href="#dTfYbvcJk"
           id="use7"
           style="opacity:1;fill:#00aac1;fill-opacity:1"
           x="0"
           y="0"
           width="100%"
           height="100%" />
      </g>
      <g
         id="g13">
        <use
           xlink:href="#c2QVAXEHWB"
           id="use11"
           style="opacity:1;fill:#f5fbf2;fill-opacity:1"
           x="0"
           y="0"
           width="100%"
           height="100%" />
      </g>
      <g
         id="g17">
        <use
           xlink:href="#b40QRCT3tz"
           id="use15"
           style="opacity:1;fill:#00aac1;fill-opacity:1"
           x="0"
           y="0"
           width="100%"
           height="100%" />
      </g>
    </g>
  </g>
</svg>
