<?xml version="1.0" encoding="UTF-8" standalone="no"?>
<svg
   xmlns:dc="http://purl.org/dc/elements/1.1/"
   xmlns:cc="http://creativecommons.org/ns#"
   xmlns:rdf="http://www.w3.org/1999/02/22-rdf-syntax-ns#"
   xmlns:svg="http://www.w3.org/2000/svg"
   xmlns="http://www.w3.org/2000/svg"
   xmlns:xlink="http://www.w3.org/1999/xlink"
   xmlns:sodipodi="http://sodipodi.sourceforge.net/DTD/sodipodi-0.dtd"
   xmlns:inkscape="http://www.inkscape.org/namespaces/inkscape"
   version="1.1"
   preserveAspectRatio="xMidYMid meet"
   viewBox="0 0 110.52 204.21001"
   width="110.52"
   height="204.21001"
   id="svg79"
   sodipodi:docname="blue.svg"
   inkscape:version="0.92.4 (5da689c313, 2019-01-14)">
  <metadata
     id="metadata83">
    <rdf:RDF>
      <cc:Work
         rdf:about="">
        <dc:format>image/svg+xml</dc:format>
        <dc:type
           rdf:resource="http://purl.org/dc/dcmitype/StillImage" />
        <dc:title></dc:title>
      </cc:Work>
    </rdf:RDF>
  </metadata>
  <sodipodi:namedview
     pagecolor="#ffffff"
     bordercolor="#666666"
     borderopacity="1"
     objecttolerance="10"
     gridtolerance="10"
     guidetolerance="10"
     inkscape:pageopacity="0"
     inkscape:pageshadow="2"
     inkscape:window-width="1366"
     inkscape:window-height="705"
     id="namedview81"
     showgrid="false"
     fit-margin-top="0"
     fit-margin-left="0"
     fit-margin-right="0"
     fit-margin-bottom="0"
     inkscape:zoom="0.36875"
     inkscape:cx="117.41"
     inkscape:cy="-15.790013"
     inkscape:window-x="-8"
     inkscape:window-y="-8"
     inkscape:window-maximized="1"
     inkscape:current-layer="svg79" />
  <defs
     id="defs13">
    <path
       d="m 293.11,100 c 11.05,0 20,8.95 20,20 0,36.84 0,127.37 0,164.21 0,11.05 -8.95,20 -20,20 -18.1,0 -52.42,0 -70.52,0 -11.05,0 -20,-8.95 -20,-20 0,-36.84 0,-127.37 0,-164.21 0,-11.05 8.95,-20 20,-20 18.1,0 52.42,0 70.52,0 z"
       id="ernGECUzc"
       inkscape:connector-curvature="0" />
    <path
       d="m 270,112.63 c 11.05,0 20,8.96 20,20 0,30.95 0,103.79 0,134.74 0,11.04 -8.95,20 -20,20 -8.84,0 -15.37,0 -24.21,0 -11.05,0 -20,-8.96 -20,-20 0,-30.95 0,-103.79 0,-134.74 0,-11.04 8.95,-20 20,-20 8.84,0 15.37,0 24.21,0 z"
       id="b4g9mZo8pM"
       inkscape:connector-curvature="0" />
    <path
       d="m 240,170 h 33.68 v 57.89 H 240 Z"
       id="d4QfrS2xN"
       inkscape:connector-curvature="0" />
    <path
       d=""
       id="aB5jXuRlT"
       inkscape:connector-curvature="0" />
    <path
       d=""
       id="bSkkq5LE"
       inkscape:connector-curvature="0" />
    <path
       d="M 240.42,169.75 273.65,170 V 159 H 239.06 Z"
       id="c9iXZC6QI8"
       inkscape:connector-curvature="0" />
    <path
       d="m 273.65,158.49 c 0,5.8 -7.75,10.51 -17.29,10.51 -9.55,0 -17.3,-4.71 -17.3,-10.51 0,-5.81 7.75,-10.52 17.3,-10.52 9.54,0 17.29,4.71 17.29,10.52 z"
       id="b9vMRIbwn"
       inkscape:connector-curvature="0" />
    <path
       d=""
       id="a37NjcsHL2"
       inkscape:connector-curvature="0" />
    <path
       d=""
       id="cfHAPsQwe"
       inkscape:connector-curvature="0" />
    <path
       d="m 274.52,227.03 -33.23,-0.25 v 11 h 34.59 z"
       id="a2eJ3FzI2b"
       inkscape:connector-curvature="0" />
    <path
       d="m 241.29,238.3 c 0,-5.81 7.75,-10.52 17.29,-10.52 9.55,0 17.3,4.71 17.3,10.51 0,5.81 -7.75,10.52 -17.3,10.52 -9.54,0 -17.29,-4.71 -17.29,-10.51 z"
       id="b1aAcoF5Hk"
       inkscape:connector-curvature="0" />
  </defs>
  <g
     id="g77"
     transform="translate(-202.59,-100)">
    <g
       id="g75">
      <g
         id="g17">
        <use
           xlink:href="#ernGECUzc"
           id="use15"
           style="opacity:1;fill:#0fa3b9;fill-opacity:1"
           x="0"
           y="0"
           width="100%"
           height="100%" />
      </g>
      <g
         id="g21">
        <use
           xlink:href="#b4g9mZo8pM"
           id="use19"
           style="opacity:1;fill:#ffffff;fill-opacity:1"
           x="0"
           y="0"
           width="100%"
           height="100%" />
      </g>
      <g
         id="g25">
        <use
           xlink:href="#d4QfrS2xN"
           id="use23"
           style="opacity:1;fill:#0fa3b9;fill-opacity:1"
           x="0"
           y="0"
           width="100%"
           height="100%" />
      </g>
      <g
         id="g31">
        <g
           id="g29">
          <use
             xlink:href="#aB5jXuRlT"
             id="use27"
             style="opacity:1;fill-opacity:0;stroke:#000000;stroke-width:1;stroke-opacity:1"
             x="0"
             y="0"
             width="100%"
             height="100%" />
        </g>
      </g>
      <g
         id="g37">
        <g
           id="g35">
          <use
             xlink:href="#bSkkq5LE"
             id="use33"
             style="opacity:1;fill-opacity:0;stroke:#000000;stroke-width:1;stroke-opacity:1"
             x="0"
             y="0"
             width="100%"
             height="100%" />
        </g>
      </g>
      <g
         id="g45">
        <use
           xlink:href="#c9iXZC6QI8"
           id="use39"
           style="opacity:1;fill:#0f184c;fill-opacity:1"
           x="0"
           y="0"
           width="100%"
           height="100%" />
        <g
           id="g43">
          <use
             xlink:href="#c9iXZC6QI8"
             id="use41"
             style="opacity:1;fill-opacity:0;stroke:#10164a;stroke-width:1;stroke-opacity:1"
             x="0"
             y="0"
             width="100%"
             height="100%" />
        </g>
      </g>
      <g
         id="g49">
        <use
           xlink:href="#b9vMRIbwn"
           id="use47"
           style="opacity:1;fill:#0f184c;fill-opacity:1"
           x="0"
           y="0"
           width="100%"
           height="100%" />
      </g>
      <g
         id="g55">
        <g
           id="g53">
          <use
             xlink:href="#a37NjcsHL2"
             id="use51"
             style="opacity:1;fill-opacity:0;stroke:#000000;stroke-width:1;stroke-opacity:1"
             x="0"
             y="0"
             width="100%"
             height="100%" />
        </g>
      </g>
      <g
         id="g61">
        <g
           id="g59">
          <use
             xlink:href="#cfHAPsQwe"
             id="use57"
             style="opacity:1;fill-opacity:0;stroke:#000000;stroke-width:1;stroke-opacity:1"
             x="0"
             y="0"
             width="100%"
             height="100%" />
        </g>
      </g>
      <g
         id="g69">
        <use
           xlink:href="#a2eJ3FzI2b"
           id="use63"
           style="opacity:1;fill:#0f184c;fill-opacity:1"
           x="0"
           y="0"
           width="100%"
           height="100%" />
        <g
           id="g67">
          <use
             xlink:href="#a2eJ3FzI2b"
             id="use65"
             style="opacity:1;fill-opacity:0;stroke:#10164a;stroke-width:1;stroke-opacity:1"
             x="0"
             y="0"
             width="100%"
             height="100%" />
        </g>
      </g>
      <g
         id="g73">
        <use
           xlink:href="#b1aAcoF5Hk"
           id="use71"
           style="opacity:1;fill:#0f184c;fill-opacity:1"
           x="0"
           y="0"
           width="100%"
           height="100%" />
      </g>
    </g>
  </g>
</svg>
