<?xml version="1.0" encoding="UTF-8" standalone="no"?>
<svg
   xmlns:dc="http://purl.org/dc/elements/1.1/"
   xmlns:cc="http://creativecommons.org/ns#"
   xmlns:rdf="http://www.w3.org/1999/02/22-rdf-syntax-ns#"
   xmlns:svg="http://www.w3.org/2000/svg"
   xmlns="http://www.w3.org/2000/svg"
   xmlns:xlink="http://www.w3.org/1999/xlink"
   xmlns:sodipodi="http://sodipodi.sourceforge.net/DTD/sodipodi-0.dtd"
   xmlns:inkscape="http://www.inkscape.org/namespaces/inkscape"
   version="1.1"
   preserveAspectRatio="xMidYMid meet"
   viewBox="202.58984 100 59.813735 204.21"
   width="346.37128"
   height="639.99707"
   id="svg3873"
   sodipodi:docname="red.svg"
   inkscape:version="0.92.4 (5da689c313, 2019-01-14)">
  <metadata
     id="metadata3877">
    <rdf:RDF>
      <cc:Work
         rdf:about="">
        <dc:format>image/svg+xml</dc:format>
        <dc:type
           rdf:resource="http://purl.org/dc/dcmitype/StillImage" />
        <dc:title></dc:title>
      </cc:Work>
    </rdf:RDF>
  </metadata>
  <sodipodi:namedview
     pagecolor="#ffffff"
     bordercolor="#666666"
     borderopacity="1"
     objecttolerance="10"
     gridtolerance="10"
     guidetolerance="10"
     inkscape:pageopacity="0"
     inkscape:pageshadow="2"
     inkscape:window-width="1366"
     inkscape:window-height="705"
     id="namedview3875"
     showgrid="false"
     fit-margin-top="0"
     fit-margin-left="0"
     fit-margin-right="0"
     fit-margin-bottom="0"
     inkscape:zoom="0.8375"
     inkscape:cx="240.54241"
     inkscape:cy="176.71348"
     inkscape:window-x="-8"
     inkscape:window-y="-8"
     inkscape:window-maximized="1"
     inkscape:current-layer="svg3873" />
  <defs
     id="defs3807">
    <path
       d="m 293.11,100 c 11.05,0 20,8.95 20,20 0,36.84 0,127.37 0,164.21 0,11.05 -8.95,20 -20,20 -18.1,0 -52.42,0 -70.52,0 -11.05,0 -20,-8.95 -20,-20 0,-36.84 0,-127.37 0,-164.21 0,-11.05 8.95,-20 20,-20 18.1,0 52.42,0 70.52,0 z"
       id="j5gY3T9CYg"
       inkscape:connector-curvature="0" />
    <path
       d="m 270,112.63 c 11.05,0 20,8.96 20,20 0,30.95 0,103.79 0,134.74 0,11.04 -8.95,20 -20,20 -8.84,0 -15.37,0 -24.21,0 -11.05,0 -20,-8.96 -20,-20 0,-30.95 0,-103.79 0,-134.74 0,-11.04 8.95,-20 20,-20 8.84,0 15.37,0 24.21,0 z"
       id="e46ysiZcUK"
       inkscape:connector-curvature="0" />
    <path
       d="m 240,170 h 33.68 v 57.89 H 240 Z"
       id="gnW1OD0UT"
       inkscape:connector-curvature="0" />
    <path
       d=""
       id="a1eqCGLU2V"
       inkscape:connector-curvature="0" />
    <path
       d=""
       id="a2l0VILmbf"
       inkscape:connector-curvature="0" />
    <path
       d="M 240.42,169.75 273.65,170 V 159 H 239.06 Z"
       id="a1WnB3Cf2"
       inkscape:connector-curvature="0" />
    <path
       d="m 273.65,158.49 c 0,5.8 -7.75,10.51 -17.29,10.51 -9.55,0 -17.3,-4.71 -17.3,-10.51 0,-5.81 7.75,-10.52 17.3,-10.52 9.54,0 17.29,4.71 17.29,10.52 z"
       id="b1F1hNJrGz"
       inkscape:connector-curvature="0" />
    <path
       d=""
       id="d9UFblMVyx"
       inkscape:connector-curvature="0" />
    <path
       d=""
       id="a40M593imM"
       inkscape:connector-curvature="0" />
    <path
       d="m 274.52,227.03 -33.23,-0.25 v 11 h 34.59 z"
       id="dg9mePHaU"
       inkscape:connector-curvature="0" />
    <path
       d="m 241.29,238.3 c 0,-5.81 7.75,-10.52 17.29,-10.52 9.55,0 17.3,4.71 17.3,10.51 0,5.81 -7.75,10.52 -17.3,10.52 -9.54,0 -17.29,-4.71 -17.29,-10.51 z"
       id="b43YGWIfGM"
       inkscape:connector-curvature="0" />
  </defs>
  <g
     id="g3871"
     transform="translate(-25.353294)">
    <g
       id="g3869">
      <g
         id="g3811">
        <use
           xlink:href="#j5gY3T9CYg"
           id="use3809"
           style="opacity:1;fill:#f03856;fill-opacity:1"
           x="0"
           y="0"
           width="100%"
           height="100%" />
      </g>
      <g
         id="g3815">
        <use
           xlink:href="#e46ysiZcUK"
           id="use3813"
           style="opacity:1;fill:#ffffff;fill-opacity:1"
           x="0"
           y="0"
           width="100%"
           height="100%" />
      </g>
      <g
         id="g3819">
        <use
           xlink:href="#gnW1OD0UT"
           id="use3817"
           style="opacity:1;fill:#ea375f;fill-opacity:1"
           x="0"
           y="0"
           width="100%"
           height="100%" />
      </g>
      <g
         id="g3825">
        <g
           id="g3823">
          <use
             xlink:href="#a1eqCGLU2V"
             id="use3821"
             style="opacity:1;fill-opacity:0;stroke:#000000;stroke-width:1;stroke-opacity:1"
             x="0"
             y="0"
             width="100%"
             height="100%" />
        </g>
      </g>
      <g
         id="g3831">
        <g
           id="g3829">
          <use
             xlink:href="#a2l0VILmbf"
             id="use3827"
             style="opacity:1;fill-opacity:0;stroke:#000000;stroke-width:1;stroke-opacity:1"
             x="0"
             y="0"
             width="100%"
             height="100%" />
        </g>
      </g>
      <g
         id="g3839">
        <use
           xlink:href="#a1WnB3Cf2"
           id="use3833"
           style="opacity:1;fill:#0f184c;fill-opacity:1"
           x="0"
           y="0"
           width="100%"
           height="100%" />
        <g
           id="g3837">
          <use
             xlink:href="#a1WnB3Cf2"
             id="use3835"
             style="opacity:1;fill-opacity:0;stroke:#10164a;stroke-width:1;stroke-opacity:1"
             x="0"
             y="0"
             width="100%"
             height="100%" />
        </g>
      </g>
      <g
         id="g3843">
        <use
           xlink:href="#b1F1hNJrGz"
           id="use3841"
           style="opacity:1;fill:#0f184c;fill-opacity:1"
           x="0"
           y="0"
           width="100%"
           height="100%" />
      </g>
      <g
         id="g3849">
        <g
           id="g3847">
          <use
             xlink:href="#d9UFblMVyx"
             id="use3845"
             style="opacity:1;fill-opacity:0;stroke:#000000;stroke-width:1;stroke-opacity:1"
             x="0"
             y="0"
             width="100%"
             height="100%" />
        </g>
      </g>
      <g
         id="g3855">
        <g
           id="g3853">
          <use
             xlink:href="#a40M593imM"
             id="use3851"
             style="opacity:1;fill-opacity:0;stroke:#000000;stroke-width:1;stroke-opacity:1"
             x="0"
             y="0"
             width="100%"
             height="100%" />
        </g>
      </g>
      <g
         id="g3863">
        <use
           xlink:href="#dg9mePHaU"
           id="use3857"
           style="opacity:1;fill:#0f184c;fill-opacity:1"
           x="0"
           y="0"
           width="100%"
           height="100%" />
        <g
           id="g3861">
          <use
             xlink:href="#dg9mePHaU"
             id="use3859"
             style="opacity:1;fill-opacity:0;stroke:#10164a;stroke-width:1;stroke-opacity:1"
             x="0"
             y="0"
             width="100%"
             height="100%" />
        </g>
      </g>
      <g
         id="g3867">
        <use
           xlink:href="#b43YGWIfGM"
           id="use3865"
           style="opacity:1;fill:#0f184c;fill-opacity:1"
           x="0"
           y="0"
           width="100%"
           height="100%" />
      </g>
    </g>
  </g>
</svg>
