<?xml version="1.0" encoding="UTF-8" standalone="no"?>
<svg
   xmlns:dc="http://purl.org/dc/elements/1.1/"
   xmlns:cc="http://creativecommons.org/ns#"
   xmlns:rdf="http://www.w3.org/1999/02/22-rdf-syntax-ns#"
   xmlns:svg="http://www.w3.org/2000/svg"
   xmlns="http://www.w3.org/2000/svg"
   xmlns:xlink="http://www.w3.org/1999/xlink"
   xmlns:sodipodi="http://sodipodi.sourceforge.net/DTD/sodipodi-0.dtd"
   xmlns:inkscape="http://www.inkscape.org/namespaces/inkscape"
   version="1.1"
   preserveAspectRatio="xMidYMid meet"
   viewBox="0 0 153.68999 157.89001"
   width="161.33231"
   height="165.74117"
   id="svg30"
   sodipodi:docname="untitled(1).svg"
   inkscape:version="0.92.4 (5da689c313, 2019-01-14)">
  <metadata
     id="metadata34">
    <rdf:RDF>
      <cc:Work
         rdf:about="">
        <dc:format>image/svg+xml</dc:format>
        <dc:type
           rdf:resource="http://purl.org/dc/dcmitype/StillImage" />
        <dc:title></dc:title>
      </cc:Work>
    </rdf:RDF>
  </metadata>
  <sodipodi:namedview
     pagecolor="#ffffff"
     bordercolor="#666666"
     borderopacity="1"
     objecttolerance="10"
     gridtolerance="10"
     guidetolerance="10"
     inkscape:pageopacity="0"
     inkscape:pageshadow="2"
     inkscape:window-width="1366"
     inkscape:window-height="705"
     id="namedview32"
     showgrid="false"
     scale-x="0.95263"
     fit-margin-top="0"
     fit-margin-left="0"
     fit-margin-right="0"
     fit-margin-bottom="0"
     inkscape:zoom="0.38815789"
     inkscape:cx="298.47844"
     inkscape:cy="-134.94172"
     inkscape:window-x="-8"
     inkscape:window-y="-8"
     inkscape:window-maximized="1"
     inkscape:current-layer="svg30" />
  <defs
     id="defs6">
    <path
       d="m 158.95,82.11 c 0,43.57 -34.43,78.94 -76.84,78.94 -42.42,0 -76.85,-35.37 -76.85,-78.94 0,-43.58 34.43,-78.95 76.85,-78.95 42.41,0 76.84,35.37 76.84,78.95 z"
       id="c1NZ8425M7"
       inkscape:connector-curvature="0" />
    <path
       d="m 137.37,82.11 c 0,31.66 -24.76,57.36 -55.26,57.36 -30.51,0 -55.27,-25.7 -55.27,-57.36 0,-31.67 24.76,-57.37 55.27,-57.37 30.5,0 55.26,25.7 55.26,57.37 z"
       id="bq2hegOgp"
       inkscape:connector-curvature="0" />
    <path
       d="m 112.63,84.74 c 0,17.14 -13.68,31.05 -30.52,31.05 -16.85,0 -30.53,-13.91 -30.53,-31.05 0,-17.14 13.68,-31.06 30.53,-31.06 16.84,0 30.52,13.92 30.52,31.06 z"
       id="b2WkYxSvYC"
       inkscape:connector-curvature="0" />
    <path
       d=""
       id="g2RJEH7ZWm"
       inkscape:connector-curvature="0" />
  </defs>
  <g
     id="g28"
     transform="translate(-5.26,-3.16)">
    <g
       id="g26">
      <g
         id="g10">
        <use
           xlink:href="#c1NZ8425M7"
           id="use8"
           style="opacity:1;fill:#ef3562;fill-opacity:1"
           x="0"
           y="0"
           width="100%"
           height="100%" />
      </g>
      <g
         id="g14">
        <use
           xlink:href="#bq2hegOgp"
           id="use12"
           style="opacity:1;fill:#f5fbf2;fill-opacity:1"
           x="0"
           y="0"
           width="100%"
           height="100%" />
      </g>
      <g
         id="g18">
        <use
           xlink:href="#b2WkYxSvYC"
           id="use16"
           style="opacity:1;fill:#ef3562;fill-opacity:1"
           x="0"
           y="0"
           width="100%"
           height="100%" />
      </g>
      <g
         id="g24">
        <g
           id="g22">
          <use
             xlink:href="#g2RJEH7ZWm"
             id="use20"
             style="opacity:1;fill-opacity:0;stroke:#000000;stroke-width:1;stroke-opacity:1"
             x="0"
             y="0"
             width="100%"
             height="100%" />
        </g>
      </g>
    </g>
  </g>
</svg>
